<svg xmlns="http://www.w3.org/2000/svg" viewBox="0 0 1600 1131" width="100%" font-family="Arial, sans-serif">
  
  <rect x="0" y="0" width="1600" height="1131" fill="white" />

  <defs>
    <marker id="arrow" markerWidth="12" markerHeight="12" refX="9" refY="4" orient="auto" markerUnits="userSpaceOnUse">
      <path d="M0,0 L9,4 L0,8 Z" fill="black" />
    </marker>
    <marker id="arrowStart" markerWidth="12" markerHeight="12" refX="0" refY="4" orient="auto" markerUnits="userSpaceOnUse">
      <path d="M9,0 L0,4 L9,8 Z" fill="black" />
    </marker>
  </defs>

  
  <rect x="10" y="10" width="1580" height="1111" fill="none" stroke="black" stroke-width="2" />
  <rect x="40" y="40" width="1520" height="1051" fill="none" stroke="black" stroke-width="1.5" />

  
  <g font-size="16" text-anchor="middle">
    
    <g>
      <line x1="10" y1="215" x2="40" y2="215" stroke="black" stroke-width="1" />
      <line x1="10" y1="390" x2="40" y2="390" stroke="black" stroke-width="1" />
      <line x1="10" y1="565" x2="40" y2="565" stroke="black" stroke-width="1" />
      <line x1="10" y1="740" x2="40" y2="740" stroke="black" stroke-width="1" />
      <line x1="10" y1="915" x2="40" y2="915" stroke="black" stroke-width="1" />
      <line x1="1560" y1="215" x2="1590" y2="215" stroke="black" stroke-width="1" />
      <line x1="1560" y1="390" x2="1590" y2="390" stroke="black" stroke-width="1" />
      <line x1="1560" y1="565" x2="1590" y2="565" stroke="black" stroke-width="1" />
      <line x1="1560" y1="740" x2="1590" y2="740" stroke="black" stroke-width="1" />
      <line x1="1560" y1="915" x2="1590" y2="915" stroke="black" stroke-width="1" />
    </g>
    <text x="25" y="130">F</text><text x="25" y="303">E</text><text x="25" y="478">D</text><text x="25" y="653">C</text><text x="25" y="828">B</text><text x="25" y="1010">A</text>
    <text x="1575" y="130">F</text><text x="1575" y="303">E</text><text x="1575" y="478">D</text><text x="1575" y="653">C</text><text x="1575" y="828">B</text><text x="1575" y="1010">A</text>
  </g>

  
  <g font-size="16" text-anchor="middle">
    <g>
      <line x1="230" y1="10" x2="230" y2="40" stroke="black" stroke-width="1" />
      <line x1="420" y1="10" x2="420" y2="40" stroke="black" stroke-width="1" />
      <line x1="610" y1="10" x2="610" y2="40" stroke="black" stroke-width="1" />
      <line x1="800" y1="10" x2="800" y2="40" stroke="black" stroke-width="1" />
      <line x1="990" y1="10" x2="990" y2="40" stroke="black" stroke-width="1" />
      <line x1="1180" y1="10" x2="1180" y2="40" stroke="black" stroke-width="1" />
      <line x1="1370" y1="10" x2="1370" y2="40" stroke="black" stroke-width="1" />
      <line x1="230" y1="1091" x2="230" y2="1121" stroke="black" stroke-width="1" />
      <line x1="420" y1="1091" x2="420" y2="1121" stroke="black" stroke-width="1" />
      <line x1="610" y1="1091" x2="610" y2="1121" stroke="black" stroke-width="1" />
      <line x1="800" y1="1091" x2="800" y2="1121" stroke="black" stroke-width="1" />
      <line x1="990" y1="1091" x2="990" y2="1121" stroke="black" stroke-width="1" />
      <line x1="1180" y1="1091" x2="1180" y2="1121" stroke="black" stroke-width="1" />
      <line x1="1370" y1="1091" x2="1370" y2="1121" stroke="black" stroke-width="1" />
    </g>
    <text x="135" y="30">8</text><text x="325" y="30">7</text><text x="515" y="30">6</text><text x="705" y="30">5</text><text x="895" y="30">4</text><text x="1085" y="30">3</text><text x="1275" y="30">2</text><text x="1465" y="30">1</text>
    <text x="135" y="1110">8</text><text x="325" y="1110">7</text><text x="515" y="1110">6</text><text x="705" y="1110">5</text><text x="895" y="1110">4</text><text x="1085" y="1110">3</text><text x="1275" y="1110">2</text><text x="1465" y="1110">1</text>
  </g>

  
  <g font-size="15">
    <text x="1180" y="70" font-weight="bold">NOTES:</text>
    <text x="1180" y="92">1. UNSPECIFIED EDGE RADIUS = 0.5 cm</text>
    <text x="1180" y="112">2. MATERIAL: SOLID WOOD (INFERRED)</text>
    <text x="1180" y="132">3. ALL DIMENSIONS IN cm. THIRD-ANGLE PROJECTION.</text>
    <text x="1180" y="152">4. BACK FACE INFERRED - NOT PHOTOGRAPHED.</text>
    <text x="1180" y="172">5. DIMENSIONS DERIVED PROPORTIONALLY FROM PHOTO.</text>
  </g>

  
  <g>
    
    <rect x="260" y="140" width="180" height="172" fill="none" stroke="black" stroke-width="2" />
    
    <rect x="260" y="140" width="18" height="18" fill="none" stroke="black" stroke-width="2" />
    <rect x="422" y="140" width="18" height="18" fill="none" stroke="black" stroke-width="2" />
    <rect x="260" y="294" width="18" height="18" fill="none" stroke="black" stroke-width="2" />
    <rect x="422" y="294" width="18" height="18" fill="none" stroke="black" stroke-width="2" />
    
    <line x1="278" y1="149" x2="422" y2="149" stroke="black" stroke-width="2" />
    
    <line x1="350" y1="120" x2="350" y2="332" stroke="black" stroke-width="1" stroke-dasharray="20 5 4 5" />
    <line x1="240" y1="226" x2="460" y2="226" stroke="black" stroke-width="1" stroke-dasharray="20 5 4 5" />

    
    <line x1="260" y1="110" x2="440" y2="110" stroke="black" stroke-width="1" marker-start="url(#arrowStart)" marker-end="url(#arrow)" />
    <line x1="260" y1="135" x2="260" y2="108" stroke="black" stroke-width="1" />
    <line x1="440" y1="135" x2="440" y2="108" stroke="black" stroke-width="1" />
    <text x="350" y="103" font-size="18" text-anchor="middle">42</text>
    
    <line x1="215" y1="140" x2="215" y2="312" stroke="black" stroke-width="1" marker-start="url(#arrowStart)" marker-end="url(#arrow)" />
    <line x1="255" y1="140" x2="213" y2="140" stroke="black" stroke-width="1" />
    <line x1="255" y1="312" x2="213" y2="312" stroke="black" stroke-width="1" />
    <text x="208" y="230" font-size="18" text-anchor="middle" transform="rotate(-90 208 230)">40</text>

    <text x="350" y="360" font-size="20" text-anchor="middle" font-weight="bold">TOP VIEW</text>
  </g>

  
  <g>
    
    <rect x="260" y="376" width="18" height="344" fill="none" stroke="black" stroke-width="2" />
    <rect x="422" y="376" width="18" height="344" fill="none" stroke="black" stroke-width="2" />
    
    <rect x="260" y="376" width="180" height="17" fill="none" stroke="black" stroke-width="2" />
    
    <rect x="278" y="415" width="144" height="12" fill="none" stroke="black" stroke-width="2" />
    <rect x="278" y="452" width="144" height="12" fill="none" stroke="black" stroke-width="2" />
    <rect x="278" y="489" width="144" height="12" fill="none" stroke="black" stroke-width="2" />
    
    <rect x="260" y="527" width="180" height="13" fill="none" stroke="black" stroke-width="2" />
    
    <rect x="278" y="650" width="144" height="12" fill="none" stroke="black" stroke-width="2" />
    
    <line x1="278" y1="672" x2="422" y2="672" stroke="black" stroke-width="1.2" stroke-dasharray="8 5" />
    
    <line x1="350" y1="360" x2="350" y2="735" stroke="black" stroke-width="1" stroke-dasharray="20 5 4 5" />

    
    <line x1="195" y1="376" x2="195" y2="720" stroke="black" stroke-width="1" marker-start="url(#arrowStart)" marker-end="url(#arrow)" />
    <line x1="258" y1="376" x2="193" y2="376" stroke="black" stroke-width="1" />
    <line x1="258" y1="720" x2="193" y2="720" stroke="black" stroke-width="1" />
    <text x="188" y="548" font-size="18" text-anchor="middle" transform="rotate(-90 188 548)">80.0 *</text>

    
    <line x1="228" y1="527" x2="228" y2="720" stroke="black" stroke-width="1" marker-start="url(#arrowStart)" marker-end="url(#arrow)" />
    <line x1="258" y1="527" x2="226" y2="527" stroke="black" stroke-width="1" />
    <line x1="258" y1="720" x2="226" y2="720" stroke="black" stroke-width="1" />
    <text x="221" y="623" font-size="18" text-anchor="middle" transform="rotate(-90 221 623)">45</text>

    
    <line x1="480" y1="376" x2="480" y2="527" stroke="black" stroke-width="1" marker-start="url(#arrowStart)" marker-end="url(#arrow)" />
    <line x1="442" y1="376" x2="482" y2="376" stroke="black" stroke-width="1" />
    <line x1="442" y1="527" x2="482" y2="527" stroke="black" stroke-width="1" />
    <text x="487" y="451" font-size="18" text-anchor="middle" transform="rotate(-90 487 451)">35</text>

    
    <line x1="260" y1="758" x2="440" y2="758" stroke="black" stroke-width="1" marker-start="url(#arrowStart)" marker-end="url(#arrow)" />
    <line x1="260" y1="722" x2="260" y2="760" stroke="black" stroke-width="1" />
    <line x1="440" y1="722" x2="440" y2="760" stroke="black" stroke-width="1" />
    <text x="350" y="778" font-size="18" text-anchor="middle">42</text>

    
    <line x1="260" y1="345" x2="278" y2="345" stroke="black" stroke-width="1" marker-start="url(#arrowStart)" marker-end="url(#arrow)" />
    <text x="255" y="340" font-size="16" text-anchor="end">4</text>

    
    <circle cx="431" cy="533" r="26" fill="none" stroke="black" stroke-width="1" />
    <line x1="449" y1="551" x2="500" y2="600" stroke="black" stroke-width="1" />
    <text x="505" y="605" font-size="16">B</text>

    <text x="350" y="810" font-size="20" text-anchor="middle" font-weight="bold">FRONT VIEW</text>
  </g>

  
  <g>
    
    <rect x="694" y="527" width="172" height="13" fill="none" stroke="black" stroke-width="2" />
    
    <rect x="849" y="540" width="17" height="180" fill="none" stroke="black" stroke-width="2" />
    
    <rect x="694" y="540" width="17" height="180" fill="none" stroke="black" stroke-width="2" />
    
    <polygon points="694,527 711,527 690,376 675,376" fill="none" stroke="black" stroke-width="2" />
    
    <rect x="672" y="376" width="20" height="17" fill="none" stroke="black" stroke-width="2" />
    
    <rect x="686" y="415" width="12" height="12" fill="none" stroke="black" stroke-width="2" />
    <rect x="689" y="452" width="12" height="12" fill="none" stroke="black" stroke-width="2" />
    <rect x="692" y="489" width="12" height="12" fill="none" stroke="black" stroke-width="2" />
    
    <rect x="711" y="650" width="138" height="11" fill="none" stroke="black" stroke-width="2" />
    
    <line x1="780" y1="360" x2="780" y2="735" stroke="black" stroke-width="1" stroke-dasharray="20 5 4 5" />

    
    <line x1="694" y1="758" x2="866" y2="758" stroke="black" stroke-width="1" marker-start="url(#arrowStart)" marker-end="url(#arrow)" />
    <line x1="694" y1="722" x2="694" y2="760" stroke="black" stroke-width="1" />
    <line x1="866" y1="722" x2="866" y2="760" stroke="black" stroke-width="1" />
    <text x="780" y="778" font-size="18" text-anchor="middle">40</text>

    
    <line x1="900" y1="650" x2="900" y2="720" stroke="black" stroke-width="1" marker-start="url(#arrowStart)" marker-end="url(#arrow)" />
    <line x1="866" y1="650" x2="902" y2="650" stroke="black" stroke-width="1" />
    <line x1="866" y1="720" x2="902" y2="720" stroke="black" stroke-width="1" />
    <text x="907" y="690" font-size="16" text-anchor="start" transform="rotate(-90 907 690)">16</text>

    <text x="780" y="810" font-size="20" text-anchor="middle" font-weight="bold">RIGHT SIDE VIEW</text>
  </g>

  
  <g stroke="black" fill="none">
    
    <polygon points="1120,461 1200,507 1124,551 1044,505" stroke-width="2" fill="#f7ede0" />
    
    <line x1="1120" y1="461" x2="1120" y2="468" stroke-width="2" />
    <line x1="1200" y1="507" x2="1200" y2="514" stroke-width="2" />
    <line x1="1124" y1="551" x2="1124" y2="558" stroke-width="2" />
    <polyline points="1120,468 1200,514 1124,558" stroke-width="2" />
    
    <line x1="1120" y1="468" x2="1120" y2="560" stroke-width="2" />
    <line x1="1200" y1="514" x2="1200" y2="606" stroke-width="2" />
    
    <line x1="1124" y1="558" x2="1124" y2="650" stroke-width="2" />
    <line x1="1044" y1="505" x2="1044" y2="604" stroke-width="2" />
    
    <line x1="1044" y1="505" x2="1044" y2="428" stroke-width="2" />
    <line x1="1124" y1="551" x2="1124" y2="474" stroke-width="2" />
    
    <line x1="1044" y1="428" x2="1124" y2="474" stroke-width="2" />
    
    <line x1="1044" y1="483" x2="1124" y2="529" stroke-width="2" />
    <line x1="1044" y1="465" x2="1124" y2="511" stroke-width="2" />
    <line x1="1044" y1="448" x2="1124" y2="494" stroke-width="2" />
    
    <line x1="1120" y1="530" x2="1124" y2="620" stroke-width="1.2" stroke-dasharray="8 5" />
    <text x="1120" y="700" font-size="20" text-anchor="middle" font-weight="bold" stroke="none" fill="black">ISOMETRIC VIEW</text>
  </g>

  
  <g>
    <circle cx="1350" cy="560" r="70" fill="none" stroke="black" stroke-width="1" />
    
    <rect x="1300" y="520" width="100" height="26" fill="none" stroke="black" stroke-width="2" />
    <rect x="1300" y="546" width="34" height="60" fill="none" stroke="black" stroke-width="2" />
    <line x1="1300" y1="546" x2="1334" y2="546" stroke="black" stroke-width="1.2" stroke-dasharray="6 4" />
    <path d="M1334,520 q6,4 6,10" fill="none" stroke="black" stroke-width="1" />
    <text x="1345" y="535" font-size="13">R0.5</text>
    <line x1="1334" y1="500" x2="1300" y2="500" stroke="black" stroke-width="1" marker-start="url(#arrowStart)" marker-end="url(#arrow)" />
    <text x="1317" y="494" font-size="14" text-anchor="middle">8</text>
    <text x="1350" y="660" font-size="16" text-anchor="middle" font-weight="bold">DETAIL B</text>
    <text x="1350" y="680" font-size="15" text-anchor="middle">SCALE 2:1</text>
  </g>

  
  <text x="1180" y="960" font-size="16" font-weight="bold">* GIVEN DIMENSION</text>

  
  <g stroke="black" fill="none">
    <rect x="1180" y="980" width="380" height="111" stroke-width="2" />
    <line x1="1180" y1="1020" x2="1560" y2="1020" stroke-width="1" />
    <line x1="1180" y1="1055" x2="1560" y2="1055" stroke-width="1" />
    <line x1="1400" y1="1020" x2="1400" y2="1091" stroke-width="1" />
  </g>
  <g font-size="15" fill="black">
    <text x="1190" y="1005" font-size="17" font-weight="bold">WOODEN DINING CHAIR</text>
    <text x="1190" y="1042">SCALE 1:5</text>
    <text x="1410" y="1042">UNITS: cm</text>
    <text x="1190" y="1078">DRAWN BY: BLUEPRINT AI</text>
    <text x="1410" y="1078">SHEET 1/1</text>
  </g>
</svg>