<svg xmlns="http://www.w3.org/2000/svg" viewBox="0 0 1600 1131" width="100%" font-family="Arial, Helvetica, sans-serif">
<rect x="0" y="0" width="1600" height="1131" fill="white" />

<defs>
<marker id="arrow" markerWidth="10" markerHeight="10" refX="8" refY="4" orient="auto" markerUnits="userSpaceOnUse">
<path d="M0,0 L8,4 L0,8 z" fill="black" />
</marker>
</defs>


<rect x="20" y="20" width="1560" height="1091" fill="none" stroke="black" stroke-width="2.5" />
<rect x="55" y="55" width="1490" height="1021" fill="none" stroke="black" stroke-width="1" />


<g font-size="15" text-anchor="middle">
<text x="117.5" y="42">8</text><text x="312.5" y="42">7</text><text x="507.5" y="42">6</text><text x="702.5" y="42">5</text>
<text x="897.5" y="42">4</text><text x="1092.5" y="42">3</text><text x="1287.5" y="42">2</text><text x="1482.5" y="42">1</text>
<text x="117.5" y="1098">8</text><text x="312.5" y="1098">7</text><text x="507.5" y="1098">6</text><text x="702.5" y="1098">5</text>
<text x="897.5" y="1098">4</text><text x="1092.5" y="1098">3</text><text x="1287.5" y="1098">2</text><text x="1482.5" y="1098">1</text>
</g>

<g stroke="black" stroke-width="1">
<line x1="215" y1="20" x2="215" y2="55" /><line x1="410" y1="20" x2="410" y2="55" /><line x1="605" y1="20" x2="605" y2="55" />
<line x1="800" y1="20" x2="800" y2="55" /><line x1="995" y1="20" x2="995" y2="55" /><line x1="1190" y1="20" x2="1190" y2="55" /><line x1="1385" y1="20" x2="1385" y2="55" />
<line x1="215" y1="1076" x2="215" y2="1111" /><line x1="410" y1="1076" x2="410" y2="1111" /><line x1="605" y1="1076" x2="605" y2="1111" />
<line x1="800" y1="1076" x2="800" y2="1111" /><line x1="995" y1="1076" x2="995" y2="1111" /><line x1="1190" y1="1076" x2="1190" y2="1111" /><line x1="1385" y1="1076" x2="1385" y2="1111" />
</g>

<g font-size="15" text-anchor="middle">
<text x="37" y="115">F</text><text x="37" y="297">E</text><text x="37" y="479">D</text><text x="37" y="661">C</text><text x="37" y="843">B</text><text x="37" y="1025">A</text>
<text x="1563" y="115">F</text><text x="1563" y="297">E</text><text x="1563" y="479">D</text><text x="1563" y="661">C</text><text x="1563" y="843">B</text><text x="1563" y="1025">A</text>
</g>
<g stroke="black" stroke-width="1">
<line x1="20" y1="201.8" x2="55" y2="201.8" /><line x1="20" y1="383.7" x2="55" y2="383.7" /><line x1="20" y1="565.5" x2="55" y2="565.5" />
<line x1="20" y1="747.3" x2="55" y2="747.3" /><line x1="20" y1="929.1" x2="55" y2="929.1" />
<line x1="1545" y1="201.8" x2="1580" y2="201.8" /><line x1="1545" y1="383.7" x2="1580" y2="383.7" /><line x1="1545" y1="565.5" x2="1580" y2="565.5" />
<line x1="1545" y1="747.3" x2="1580" y2="747.3" /><line x1="1545" y1="929.1" x2="1580" y2="929.1" />
</g>


<g font-size="16">
<text x="1085" y="75" font-weight="bold">GENERAL NOTES:</text>
<text x="1085" y="98">1. UNSPECIFIED EDGE RADIUS = 0.3 cm</text>
<text x="1085" y="121">2. ALL DIMENSIONS IN CENTIMETERS (cm)</text>
<text x="1085" y="144">3. MATERIAL: SOLID WOOD (SPECIES UNSPEC.)</text>
<text x="1085" y="167">4. REAR FACE OF BACKREST / BACK LEGS</text>
<text x="1100" y="187">INFERRED FROM SYMMETRY - NOT FULLY</text>
<text x="1100" y="207">VISIBLE IN SOURCE PHOTOGRAPH.</text>
</g>


<g font-size="15">
<text x="850" y="700">NOTE: SOLID WOOD CONSTRUCTION -</text>
<text x="850" y="720">NO INTERNAL CAVITIES DETECTED;</text>
<text x="850" y="740">SECTION VIEW OMITTED.</text>
<text x="850" y="800">NOTE: BACK LEG / BACKREST STANCE</text>
<text x="850" y="820">PARTIALLY INFERRED FROM SYMMETRY -</text>
<text x="850" y="840">REAR NOT FULLY VISIBLE IN PHOTO.</text>
</g>


<g stroke="black" fill="none">

<rect x="300" y="560" width="231" height="22" stroke-width="2" />

<polygon points="305,752.5 327,752.5 322,582 300,582" stroke-width="2" />
<polygon points="504,752.5 526,752.5 531,582 509,582" stroke-width="2" />

<rect x="330" y="613" width="171" height="16" stroke-width="2" />
<rect x="330" y="659" width="171" height="17" stroke-width="2" />
<rect x="330" y="706" width="171" height="16" stroke-width="2" />

<rect x="300" y="752.5" width="231" height="16.5" stroke-width="2" />

<polygon points="308,769 327.25,769 324.5,1000 310.75,1000" stroke-width="2" />
<polygon points="503.75,769 523,769 520.25,1000 506.5,1000" stroke-width="2" />

<rect x="318" y="912" width="196" height="11" stroke-width="2" />

<line x1="302" y1="769" x2="296" y2="1000" stroke-width="1.2" stroke-dasharray="8 5" />
<line x1="529" y1="769" x2="535" y2="1000" stroke-width="1.2" stroke-dasharray="8 5" />
</g>

<line x1="415.5" y1="555" x2="415.5" y2="1005" stroke="black" stroke-width="1" stroke-dasharray="20 5 4 5" />


<circle cx="317" cy="985" r="20" stroke="black" stroke-width="1" fill="none" />
<text x="340" y="990" font-size="16" font-weight="bold">B</text>
<line x1="337" y1="985" x2="1080" y2="800" stroke="black" stroke-width="1" />

<text x="415" y="1035" font-size="18" text-anchor="middle" font-weight="bold">FRONT VIEW</text>


<g font-size="18">

<line x1="300" y1="560" x2="248" y2="560" stroke="black" stroke-width="1" />
<line x1="300" y1="1000" x2="248" y2="1000" stroke="black" stroke-width="1" />
<line x1="250" y1="560" x2="250" y2="1000" stroke="black" stroke-width="1" marker-start="url(#arrow)" marker-end="url(#arrow)" />
<text x="250" y="785" transform="rotate(-90 250 785)" text-anchor="middle">80.0 *</text>


<line x1="300" y1="752.5" x2="268" y2="752.5" stroke="black" stroke-width="1" />
<line x1="300" y1="1000" x2="268" y2="1000" stroke="black" stroke-width="1" />
<line x1="270" y1="752.5" x2="270" y2="1000" stroke="black" stroke-width="1" marker-start="url(#arrow)" marker-end="url(#arrow)" />
<text x="270" y="885" transform="rotate(-90 270 885)" text-anchor="middle">45.0</text>


<line x1="300" y1="560" x2="288" y2="560" stroke="black" stroke-width="1" />
<line x1="300" y1="752.5" x2="288" y2="752.5" stroke="black" stroke-width="1" />
<line x1="290" y1="560" x2="290" y2="752.5" stroke="black" stroke-width="1" marker-start="url(#arrow)" marker-end="url(#arrow)" />
<text x="290" y="665" transform="rotate(-90 290 665)" text-anchor="middle">35.0</text>


<line x1="300" y1="1000" x2="300" y2="1015" stroke="black" stroke-width="1" />
<line x1="531" y1="1000" x2="531" y2="1015" stroke="black" stroke-width="1" />
<line x1="300" y1="1013" x2="531" y2="1013" stroke="black" stroke-width="1" marker-start="url(#arrow)" marker-end="url(#arrow)" />
<text x="415" y="1010" text-anchor="middle">42.0</text>


<line x1="531" y1="752.5" x2="548" y2="752.5" stroke="black" stroke-width="1" />
<line x1="531" y1="769" x2="548" y2="769" stroke="black" stroke-width="1" />
<line x1="546" y1="752.5" x2="546" y2="769" stroke="black" stroke-width="1" marker-start="url(#arrow)" marker-end="url(#arrow)" />
<text x="552" y="765">3.0</text>
</g>


<g stroke="black" fill="none" stroke-width="2">
<polygon points="300,520 531,520 520,300 311,300" />
<rect x="308" y="501" width="19" height="19" />
<rect x="504" y="501" width="19" height="19" />
<rect x="312" y="300" width="19" height="19" />
<rect x="499" y="300" width="19" height="19" />
<rect x="300" y="300" width="27" height="9" />
<rect x="504" y="300" width="27" height="9" />
</g>
<line x1="415.5" y1="290" x2="415.5" y2="530" stroke="black" stroke-width="1" stroke-dasharray="20 5 4 5" />
<text x="415" y="552" font-size="18" text-anchor="middle" font-weight="bold">TOP VIEW</text>

<g font-size="18">

<line x1="300" y1="520" x2="300" y2="535" stroke="black" stroke-width="1" />
<line x1="531" y1="520" x2="531" y2="535" stroke="black" stroke-width="1" />
<line x1="300" y1="533" x2="531" y2="533" stroke="black" stroke-width="1" marker-start="url(#arrow)" marker-end="url(#arrow)" />
<text x="415" y="530" text-anchor="middle">42.0</text>


<line x1="311" y1="300" x2="311" y2="280" stroke="black" stroke-width="1" />
<line x1="520" y1="300" x2="520" y2="280" stroke="black" stroke-width="1" />
<line x1="311" y1="282" x2="520" y2="282" stroke="black" stroke-width="1" marker-start="url(#arrow)" marker-end="url(#arrow)" />
<text x="415" y="276" text-anchor="middle">38.0</text>


<line x1="531" y1="520" x2="546" y2="520" stroke="black" stroke-width="1" />
<line x1="531" y1="300" x2="546" y2="300" stroke="black" stroke-width="1" />
<line x1="544" y1="300" x2="544" y2="520" stroke="black" stroke-width="1" marker-start="url(#arrow)" marker-end="url(#arrow)" />
<text x="552" y="415" transform="rotate(-90 552 415)" text-anchor="middle">40.0</text>
</g>


<g stroke="black" fill="none" stroke-width="2">
<rect x="591" y="752.5" width="220" height="16.5" />
<polygon points="599,769 618.25,769 615.75,1000 602,1000" />
<polygon points="783.8,1000 772.5,769 772.5,752.5 796,582 799,560 817,560 814,582 787.5,752.5 787.5,769 803,1000" />
<rect x="775" y="613" width="18" height="16" />
<rect x="775" y="659" width="18" height="17" />
<rect x="775" y="706" width="18" height="16" />
<rect x="618" y="912" width="164" height="11" />
</g>
<line x1="701" y1="555" x2="701" y2="1005" stroke="black" stroke-width="1" stroke-dasharray="20 5 4 5" />
<text x="701" y="1035" font-size="18" text-anchor="middle" font-weight="bold">RIGHT SIDE VIEW</text>

<g font-size="18">

<line x1="591" y1="560" x2="591" y2="545" stroke="black" stroke-width="1" />
<line x1="811" y1="560" x2="811" y2="545" stroke="black" stroke-width="1" />
<line x1="591" y1="543" x2="811" y2="543" stroke="black" stroke-width="1" marker-start="url(#arrow)" marker-end="url(#arrow)" />
<text x="701" y="538" text-anchor="middle">40.0</text>


<line x1="811" y1="1000" x2="826" y2="1000" stroke="black" stroke-width="1" />
<line x1="811" y1="917.5" x2="826" y2="917.5" stroke="black" stroke-width="1" />
<line x1="824" y1="917.5" x2="824" y2="1000" stroke="black" stroke-width="1" marker-start="url(#arrow)" marker-end="url(#arrow)" />
<text x="832" y="963" transform="rotate(-90 832 963)" text-anchor="middle">15.0</text>
</g>


<g stroke="black" fill="none" stroke-width="2">

<polygon points="1133,478 1147,478 1144,628 1130,628" />
<polygon points="1243,498 1257,498 1254,648 1240,648" />
<polygon points="1203,418 1217,418 1215,568 1201,568" />
<polygon points="1313,438 1327,438 1325,588 1311,588" />

<polygon points="1140,460 1250,480 1250,498 1140,478" fill="white" />
<polygon points="1250,480 1320,420 1320,438 1250,498" fill="white" />
<polygon points="1140,460 1250,480 1320,420 1210,400" fill="white" />

<polygon points="1203,400 1217,400 1215,250 1201,250" />
<polygon points="1313,420 1327,420 1325,270 1311,270" />

<polygon points="1205,250 1315,270 1325,270 1215,250" />

<line x1="1210" y1="362.5" x2="1320" y2="382.5" />
<line x1="1210" y1="370.5" x2="1320" y2="390.5" />
<line x1="1210" y1="325" x2="1320" y2="345" />
<line x1="1210" y1="333" x2="1320" y2="353" />
<line x1="1210" y1="287.5" x2="1320" y2="307.5" />
<line x1="1210" y1="295.5" x2="1320" y2="315.5" />
</g>
<text x="1230" y="670" font-size="18" text-anchor="middle" font-weight="bold">ISOMETRIC VIEW</text>


<circle cx="1165" cy="800" r="90" fill="none" stroke="black" stroke-width="1" />
<g stroke="black" fill="none" stroke-width="2">
<polygon points="1149.9,770 1180.1,770 1178.75,876 1155,880 1148,878 1151.25,876" />
<path d="M1178.75,876 Q1178,881 1174,880" stroke-width="2" />
<path d="M1151.25,876 Q1152,881 1156,880" stroke-width="2" />
</g>
<text x="1165" y="700" font-size="18" text-anchor="middle" font-weight="bold">DETAIL B / SCALE 2:1</text>

<g font-size="18">
<line x1="1178.75" y1="880" x2="1178.75" y2="895" stroke="black" stroke-width="1" />
<line x1="1151.25" y1="880" x2="1151.25" y2="895" stroke="black" stroke-width="1" />
<line x1="1151.25" y1="893" x2="1178.75" y2="893" stroke="black" stroke-width="1" marker-start="url(#arrow)" marker-end="url(#arrow)" />
<text x="1165" y="912" text-anchor="middle">2.5</text>

<line x1="1180.1" y1="770" x2="1195" y2="770" stroke="black" stroke-width="1" />
<line x1="1178.75" y1="880" x2="1195" y2="880" stroke="black" stroke-width="1" />
<line x1="1193" y1="770" x2="1193" y2="880" stroke="black" stroke-width="1" marker-start="url(#arrow)" marker-end="url(#arrow)" />
<text x="1200" y="828" transform="rotate(-90 1200 828)" text-anchor="middle">10.0</text>

<line x1="1156" y1="880" x2="1120" y2="905" stroke="black" stroke-width="1" />
<text x="1075" y="915">R 0.3 (TYP)</text>
</g>


<rect x="1085" y="965" width="495" height="146" fill="none" stroke="black" stroke-width="2" />
<line x1="1085" y1="1000" x2="1580" y2="1000" stroke="black" stroke-width="1" />
<line x1="1085" y1="1033" x2="1580" y2="1033" stroke="black" stroke-width="1" />
<line x1="1085" y1="1066" x2="1580" y2="1066" stroke="black" stroke-width="1" />
<line x1="1085" y1="1088" x2="1580" y2="1088" stroke="black" stroke-width="1" />
<line x1="1330" y1="1033" x2="1330" y2="1111" stroke="black" stroke-width="1" />

<text x="1100" y="988" font-size="20" font-weight="bold">WOODEN DINING CHAIR</text>
<text x="1100" y="1022" font-size="16">SCALE  1:5</text>
<text x="1345" y="1022" font-size="16">UNITS: CENTIMETERS (cm)</text>
<text x="1100" y="1055" font-size="16">DRAWN BY: BLUEPRINT AI</text>
<text x="1345" y="1055" font-size="16">THIRD ANGLE PROJECTION</text>
<text x="1100" y="1080" font-size="14">DWG NO. CH-0001</text>
<text x="1345" y="1080" font-size="14">SHEET 1 OF 1</text>

<text x="1085" y="948" font-size="16" font-style="italic">* GIVEN DIMENSION</text>

</svg>