<svg xmlns="http://www.w3.org/2000/svg" viewBox="0 0 1600 1131" width="100%"><rect x="0" y="0" width="1600" height="1131" fill="white" /><rect x="20" y="20" width="1560" height="1091" fill="none" stroke="black" stroke-width="3" /><rect x="40" y="40" width="1520" height="1051" fill="none" stroke="black" stroke-width="1.5" /><text x="30" y="116" font-family="DejaVu Sans, sans-serif" font-size="14" fill="black" text-anchor="middle">F</text><text x="1570" y="116" font-family="DejaVu Sans, sans-serif" font-size="14" fill="black" text-anchor="middle">F</text><text x="30" y="298" font-family="DejaVu Sans, sans-serif" font-size="14" fill="black" text-anchor="middle">E</text><text x="1570" y="298" font-family="DejaVu Sans, sans-serif" font-size="14" fill="black" text-anchor="middle">E</text><text x="30" y="480" font-family="DejaVu Sans, sans-serif" font-size="14" fill="black" text-anchor="middle">D</text><text x="1570" y="480" font-family="DejaVu Sans, sans-serif" font-size="14" fill="black" text-anchor="middle">D</text><text x="30" y="661" font-family="DejaVu Sans, sans-serif" font-size="14" fill="black" text-anchor="middle">C</text><text x="1570" y="661" font-family="DejaVu Sans, sans-serif" font-size="14" fill="black" text-anchor="middle">C</text><text x="30" y="843" font-family="DejaVu Sans, sans-serif" font-size="14" fill="black" text-anchor="middle">B</text><text x="1570" y="843" font-family="DejaVu Sans, sans-serif" font-size="14" fill="black" text-anchor="middle">B</text><text x="30" y="1025" font-family="DejaVu Sans, sans-serif" font-size="14" fill="black" text-anchor="middle">A</text><text x="1570" y="1025" font-family="DejaVu Sans, sans-serif" font-size="14" fill="black" text-anchor="middle">A</text><line x1="20" y1="201.8" x2="40" y2="201.8" stroke="black" stroke-width="1" /><line x1="1560" y1="201.8" x2="1580" y2="201.8" stroke="black" stroke-width="1" /><line x1="20" y1="383.7" x2="40" y2="383.7" stroke="black" stroke-width="1" /><line x1="1560" y1="383.7" x2="1580" y2="383.7" stroke="black" stroke-width="1" /><line x1="20" y1="565.5" x2="40" y2="565.5" stroke="black" stroke-width="1" /><line x1="1560" y1="565.5" x2="1580" y2="565.5" stroke="black" stroke-width="1" /><line x1="20" y1="747.3" x2="40" y2="747.3" stroke="black" stroke-width="1" /><line x1="1560" y1="747.3" x2="1580" y2="747.3" stroke="black" stroke-width="1" /><line x1="20" y1="929.2" x2="40" y2="929.2" stroke="black" stroke-width="1" /><line x1="1560" y1="929.2" x2="1580" y2="929.2" stroke="black" stroke-width="1" /><text x="118" y="36" font-family="DejaVu Sans, sans-serif" font-size="14" fill="black" text-anchor="middle">8</text><text x="118" y="1106" font-family="DejaVu Sans, sans-serif" font-size="14" fill="black" text-anchor="middle">8</text><text x="312" y="36" font-family="DejaVu Sans, sans-serif" font-size="14" fill="black" text-anchor="middle">7</text><text x="312" y="1106" font-family="DejaVu Sans, sans-serif" font-size="14" fill="black" text-anchor="middle">7</text><text x="508" y="36" font-family="DejaVu Sans, sans-serif" font-size="14" fill="black" text-anchor="middle">6</text><text x="508" y="1106" font-family="DejaVu Sans, sans-serif" font-size="14" fill="black" text-anchor="middle">6</text><text x="702" y="36" font-family="DejaVu Sans, sans-serif" font-size="14" fill="black" text-anchor="middle">5</text><text x="702" y="1106" font-family="DejaVu Sans, sans-serif" font-size="14" fill="black" text-anchor="middle">5</text><text x="898" y="36" font-family="DejaVu Sans, sans-serif" font-size="14" fill="black" text-anchor="middle">4</text><text x="898" y="1106" font-family="DejaVu Sans, sans-serif" font-size="14" fill="black" text-anchor="middle">4</text><text x="1092" y="36" font-family="DejaVu Sans, sans-serif" font-size="14" fill="black" text-anchor="middle">3</text><text x="1092" y="1106" font-family="DejaVu Sans, sans-serif" font-size="14" fill="black" text-anchor="middle">3</text><text x="1288" y="36" font-family="DejaVu Sans, sans-serif" font-size="14" fill="black" text-anchor="middle">2</text><text x="1288" y="1106" font-family="DejaVu Sans, sans-serif" font-size="14" fill="black" text-anchor="middle">2</text><text x="1482" y="36" font-family="DejaVu Sans, sans-serif" font-size="14" fill="black" text-anchor="middle">1</text><text x="1482" y="1106" font-family="DejaVu Sans, sans-serif" font-size="14" fill="black" text-anchor="middle">1</text><line x1="215.0" y1="20" x2="215.0" y2="40" stroke="black" stroke-width="1" /><line x1="215.0" y1="1091" x2="215.0" y2="1111" stroke="black" stroke-width="1" /><line x1="410.0" y1="20" x2="410.0" y2="40" stroke="black" stroke-width="1" /><line x1="410.0" y1="1091" x2="410.0" y2="1111" stroke="black" stroke-width="1" /><line x1="605.0" y1="20" x2="605.0" y2="40" stroke="black" stroke-width="1" /><line x1="605.0" y1="1091" x2="605.0" y2="1111" stroke="black" stroke-width="1" /><line x1="800.0" y1="20" x2="800.0" y2="40" stroke="black" stroke-width="1" /><line x1="800.0" y1="1091" x2="800.0" y2="1111" stroke="black" stroke-width="1" /><line x1="995.0" y1="20" x2="995.0" y2="40" stroke="black" stroke-width="1" /><line x1="995.0" y1="1091" x2="995.0" y2="1111" stroke="black" stroke-width="1" /><line x1="1190.0" y1="20" x2="1190.0" y2="40" stroke="black" stroke-width="1" /><line x1="1190.0" y1="1091" x2="1190.0" y2="1111" stroke="black" stroke-width="1" /><line x1="1385.0" y1="20" x2="1385.0" y2="40" stroke="black" stroke-width="1" /><line x1="1385.0" y1="1091" x2="1385.0" y2="1111" stroke="black" stroke-width="1" /><text x="1195" y="940" font-family="DejaVu Sans, sans-serif" font-size="14" fill="black">* GIVEN DIMENSION</text><rect x="1180" y="950" width="380" height="135" fill="none" stroke="black" stroke-width="1.5" /><line x1="1180" y1="990" x2="1560" y2="990" stroke="black" stroke-width="1" /><text x="1195" y="977" font-family="DejaVu Sans, sans-serif" font-size="18" fill="black">PART: SELF-MADE IC CHIP CIRCUIT BOARD MO</text><text x="1195" y="1018" font-family="DejaVu Sans, sans-serif" font-size="15" fill="black">SCALE 1.57:1   UNITS: cm</text><text x="1195" y="1046" font-family="DejaVu Sans, sans-serif" font-size="15" fill="black">DRAWN BY: BLUEPRINT AI</text><text x="1195" y="1074" font-family="DejaVu Sans, sans-serif" font-size="15" fill="black">SHEET 1/1</text><clipPath id="clip-content"><rect x="0" y="0" width="1080" height="840" /></clipPath><g id="model-content" clip-path="url(#clip-content)" transform="translate(60 60)"><defs>
    <marker id="arrow" markerWidth="10" markerHeight="10" refX="8" refY="3" orient="auto" markerUnits="strokeWidth">
      <path d="M0,0 L8,3 L0,6 Z" fill="black" />
    </marker>
  </defs>

  
  <g id="geometry" data-mm-per-unit="0.1667">
    <g id="geo-top">
      <path d="M355,90 L610,90 L610,252 L340,252 L340,105 Z" fill="none" stroke="black" stroke-width="2" />
      <circle cx="365" cy="110" r="6" fill="none" stroke="black" stroke-width="2" />
      
      <rect x="361" y="48" width="18" height="42" fill="none" stroke="black" stroke-width="2" />
      <rect x="391" y="48" width="18" height="42" fill="none" stroke="black" stroke-width="2" />
      <rect x="421" y="48" width="18" height="42" fill="none" stroke="black" stroke-width="2" />
      <rect x="451" y="48" width="18" height="42" fill="none" stroke="black" stroke-width="2" />
      <rect x="481" y="48" width="18" height="42" fill="none" stroke="black" stroke-width="2" />
      <rect x="511" y="48" width="18" height="42" fill="none" stroke="black" stroke-width="2" />
      <rect x="541" y="48" width="18" height="42" fill="none" stroke="black" stroke-width="2" />
      <rect x="571" y="48" width="18" height="42" fill="none" stroke="black" stroke-width="2" />
      
      <rect x="361" y="252" width="18" height="42" fill="none" stroke="black" stroke-width="2" />
      <rect x="391" y="252" width="18" height="42" fill="none" stroke="black" stroke-width="2" />
      <rect x="421" y="252" width="18" height="42" fill="none" stroke="black" stroke-width="2" />
      <rect x="451" y="252" width="18" height="42" fill="none" stroke="black" stroke-width="2" />
      <rect x="481" y="252" width="18" height="42" fill="none" stroke="black" stroke-width="2" />
      <rect x="511" y="252" width="18" height="42" fill="none" stroke="black" stroke-width="2" />
      <rect x="541" y="252" width="18" height="42" fill="none" stroke="black" stroke-width="2" />
      <rect x="571" y="252" width="18" height="42" fill="none" stroke="black" stroke-width="2" />
    </g>

    <g id="geo-front">
      <rect x="340" y="380" width="270" height="60" fill="none" stroke="black" stroke-width="2" />
      <line x1="370" y1="380" x2="370" y2="372" stroke="black" stroke-width="1.2" stroke-dasharray="8 5" />
      <line x1="400" y1="380" x2="400" y2="372" stroke="black" stroke-width="1.2" stroke-dasharray="8 5" />
      <line x1="430" y1="380" x2="430" y2="372" stroke="black" stroke-width="1.2" stroke-dasharray="8 5" />
      <line x1="460" y1="380" x2="460" y2="372" stroke="black" stroke-width="1.2" stroke-dasharray="8 5" />
      <line x1="490" y1="380" x2="490" y2="372" stroke="black" stroke-width="1.2" stroke-dasharray="8 5" />
      <line x1="520" y1="380" x2="520" y2="372" stroke="black" stroke-width="1.2" stroke-dasharray="8 5" />
      <line x1="550" y1="380" x2="550" y2="372" stroke="black" stroke-width="1.2" stroke-dasharray="8 5" />
      <line x1="580" y1="380" x2="580" y2="372" stroke="black" stroke-width="1.2" stroke-dasharray="8 5" />
      <line x1="370" y1="440" x2="370" y2="448" stroke="black" stroke-width="1.2" stroke-dasharray="8 5" />
      <line x1="400" y1="440" x2="400" y2="448" stroke="black" stroke-width="1.2" stroke-dasharray="8 5" />
      <line x1="430" y1="440" x2="430" y2="448" stroke="black" stroke-width="1.2" stroke-dasharray="8 5" />
      <line x1="460" y1="440" x2="460" y2="448" stroke="black" stroke-width="1.2" stroke-dasharray="8 5" />
      <line x1="490" y1="440" x2="490" y2="448" stroke="black" stroke-width="1.2" stroke-dasharray="8 5" />
      <line x1="520" y1="440" x2="520" y2="448" stroke="black" stroke-width="1.2" stroke-dasharray="8 5" />
      <line x1="550" y1="440" x2="550" y2="448" stroke="black" stroke-width="1.2" stroke-dasharray="8 5" />
      <line x1="580" y1="440" x2="580" y2="448" stroke="black" stroke-width="1.2" stroke-dasharray="8 5" />
    </g>

    <g id="geo-side">
      <rect x="742" y="380" width="162" height="60" fill="none" stroke="black" stroke-width="2" />
      <rect x="700" y="395" width="42" height="30" fill="none" stroke="black" stroke-width="2" />
      <rect x="904" y="395" width="42" height="30" fill="none" stroke="black" stroke-width="2" />
    </g>
  </g>

  
  <line x1="475" y1="30" x2="475" y2="360" stroke="black" stroke-width="0.6" stroke-dasharray="20 5 4 5" />
  <line x1="820" y1="360" x2="820" y2="460" stroke="black" stroke-width="0.6" stroke-dasharray="20 5 4 5" />

  
  <line x1="340" y1="300" x2="340" y2="270" stroke="black" stroke-width="1" />
  <line x1="610" y1="300" x2="610" y2="270" stroke="black" stroke-width="1" />
  <line x1="340" y1="298" x2="610" y2="298" stroke="black" stroke-width="1" marker-start="url(#arrow)" marker-end="url(#arrow)" />
  <text x="450" y="292" font-size="18">4.5*</text>

  <line x1="325" y1="90" x2="300" y2="90" stroke="black" stroke-width="1" />
  <line x1="325" y1="252" x2="300" y2="252" stroke="black" stroke-width="1" />
  <line x1="303" y1="90" x2="303" y2="252" stroke="black" stroke-width="1" marker-start="url(#arrow)" marker-end="url(#arrow)" />
  <text x="255" y="175" font-size="18" transform="rotate(-90 255 175)">2.7</text>

  <line x1="580" y1="48" x2="640" y2="48" stroke="black" stroke-width="1" />
  <line x1="580" y1="90" x2="640" y2="90" stroke="black" stroke-width="1" />
  <line x1="635" y1="48" x2="635" y2="90" stroke="black" stroke-width="1" marker-start="url(#arrow)" marker-end="url(#arrow)" />
  <text x="642" y="72" font-size="18">0.7</text>

  <text x="655" y="115" font-size="16">8X PINS, 0.3 WIDE</text>
  <text x="655" y="135" font-size="16">0.5 PITCH (TYP EA SIDE)</text>

  <text x="390" y="115" font-size="15">PIN 1</text>
  <line x1="380" y1="112" x2="365" y2="110" stroke="black" stroke-width="1" />
  <text x="360" y="80" font-size="14">0.3 X 45° CHAMFER</text>
  <line x1="358" y1="82" x2="350" y2="97" stroke="black" stroke-width="1" />

  <text x="475" y="335" font-size="18" text-anchor="middle">TOP VIEW</text>

  
  <line x1="620" y1="380" x2="645" y2="380" stroke="black" stroke-width="1" />
  <line x1="620" y1="440" x2="645" y2="440" stroke="black" stroke-width="1" />
  <line x1="640" y1="380" x2="640" y2="440" stroke="black" stroke-width="1" marker-start="url(#arrow)" marker-end="url(#arrow)" />
  <text x="648" y="415" font-size="18">1.0</text>

  <text x="475" y="470" font-size="18" text-anchor="middle">FRONT VIEW</text>

  
  <line x1="742" y1="365" x2="742" y2="345" stroke="black" stroke-width="1" />
  <line x1="904" y1="365" x2="904" y2="345" stroke="black" stroke-width="1" />
  <line x1="742" y1="350" x2="904" y2="350" stroke="black" stroke-width="1" marker-start="url(#arrow)" marker-end="url(#arrow)" />
  <text x="800" y="345" font-size="18">2.7</text>

  <line x1="700" y1="450" x2="700" y2="465" stroke="black" stroke-width="1" />
  <line x1="946" y1="450" x2="946" y2="465" stroke="black" stroke-width="1" />
  <line x1="700" y1="460" x2="946" y2="460" stroke="black" stroke-width="1" marker-start="url(#arrow)" marker-end="url(#arrow)" />
  <text x="800" y="478" font-size="18">4.1</text>

  <text x="820" y="500" font-size="18" text-anchor="middle">RIGHT SIDE VIEW</text>

  
  <text x="340" y="560" font-size="16">NOTES:</text>
  <text x="340" y="582" font-size="15">1. UNSPECIFIED EDGE RADIUS = 0.05 CM</text>
  <text x="340" y="602" font-size="15">2. PART IS SOLID (3D PRINTED) - NO INTERNAL</text>
  <text x="360" y="620" font-size="15">FEATURES OBSERVED - SECTION VIEW OMITTED</text>
  <text x="340" y="640" font-size="15">3. ~SOIC-16 STYLE PACKAGE MODEL (NON-FUNCTIONAL)?</text>
  <text x="340" y="660" font-size="15">4. RIGHT SIDE VIEW SHOWS PIN ROW COLLAPSED</text>
  <text x="360" y="678" font-size="15">(8 PINS PER SIDE OVERLAP ALONG LENGTH AXIS)</text>
  <text x="340" y="698" font-size="15">5. NOTE: BACK FACE INFERRED - SYMMETRIC TO FRONT</text>

  <desc id="detail-specs">[{"view": "top", "cx": 400, "cy": 69, "r": 40, "scale": 2, "label": "A"}]</desc>
</g><g id="iso-view"><path d="M 1174.00 224.18 L 1394.00 97.16 L 1394.00 153.61 L 1174.00 280.63 Z" fill="none" stroke="black" stroke-width="1.2" stroke-dasharray="6 5" /><line x1="1306.00" y1="300.39" x2="1174.00" y2="224.18" stroke="black" stroke-width="2" /><line x1="1526.00" y1="173.37" x2="1394.00" y2="97.16" stroke="black" stroke-width="2" /><line x1="1526.00" y1="229.82" x2="1394.00" y2="153.61" stroke="black" stroke-width="2" /><line x1="1306.00" y1="356.84" x2="1174.00" y2="280.63" stroke="black" stroke-width="2" /><path d="M 1306.00 300.39 L 1526.00 173.37 L 1526.00 229.82 L 1306.00 356.84 Z" fill="none" stroke="black" stroke-width="2" /><text x="1350.0" y="414.0" font-family="DejaVu Sans, sans-serif" font-size="18" fill="black" text-anchor="middle">ISOMETRIC VIEW</text></g><clipPath id="clip-detail-A-0"><circle cx="1350.0" cy="537.0" r="80.0" /></clipPath><g clip-path="url(#clip-detail-A-0)"><g transform="translate(550.00 399.00) scale(2)"><g>
      <path d="M355,90 L610,90 L610,252 L340,252 L340,105 Z" fill="none" stroke="black" stroke-width="2" />
      <circle cx="365" cy="110" r="6" fill="none" stroke="black" stroke-width="2" />
      
      <rect x="361" y="48" width="18" height="42" fill="none" stroke="black" stroke-width="2" />
      <rect x="391" y="48" width="18" height="42" fill="none" stroke="black" stroke-width="2" />
      <rect x="421" y="48" width="18" height="42" fill="none" stroke="black" stroke-width="2" />
      <rect x="451" y="48" width="18" height="42" fill="none" stroke="black" stroke-width="2" />
      <rect x="481" y="48" width="18" height="42" fill="none" stroke="black" stroke-width="2" />
      <rect x="511" y="48" width="18" height="42" fill="none" stroke="black" stroke-width="2" />
      <rect x="541" y="48" width="18" height="42" fill="none" stroke="black" stroke-width="2" />
      <rect x="571" y="48" width="18" height="42" fill="none" stroke="black" stroke-width="2" />
      
      <rect x="361" y="252" width="18" height="42" fill="none" stroke="black" stroke-width="2" />
      <rect x="391" y="252" width="18" height="42" fill="none" stroke="black" stroke-width="2" />
      <rect x="421" y="252" width="18" height="42" fill="none" stroke="black" stroke-width="2" />
      <rect x="451" y="252" width="18" height="42" fill="none" stroke="black" stroke-width="2" />
      <rect x="481" y="252" width="18" height="42" fill="none" stroke="black" stroke-width="2" />
      <rect x="511" y="252" width="18" height="42" fill="none" stroke="black" stroke-width="2" />
      <rect x="541" y="252" width="18" height="42" fill="none" stroke="black" stroke-width="2" />
      <rect x="571" y="252" width="18" height="42" fill="none" stroke="black" stroke-width="2" />
    </g>

    </g></g><circle cx="1350.0" cy="537.0" r="80.0" fill="none" stroke="black" stroke-width="1.5" /><text x="1350.0" y="654" font-family="DejaVu Sans, sans-serif" font-size="18" fill="black" text-anchor="middle">DETAIL A (2:1)</text><circle cx="460.0" cy="129.0" r="40.0" fill="none" stroke="black" stroke-width="1" stroke-dasharray="6 4" /><text x="504.0" y="85.0" font-family="DejaVu Sans, sans-serif" font-size="16" fill="black">A</text><line x1="496.4" y1="145.7" x2="1277.3" y2="503.7" stroke="black" stroke-width="0.8" stroke-dasharray="10 6" /></svg>