<svg xmlns="http://www.w3.org/2000/svg" viewBox="0 0 1600 1131" width="100%"><rect x="0" y="0" width="1600" height="1131" fill="white" /><rect x="20" y="20" width="1560" height="1091" fill="none" stroke="black" stroke-width="3" /><rect x="40" y="40" width="1520" height="1051" fill="none" stroke="black" stroke-width="1.5" /><text x="30" y="116" font-family="DejaVu Sans, sans-serif" font-size="14" fill="black" text-anchor="middle">F</text><text x="1570" y="116" font-family="DejaVu Sans, sans-serif" font-size="14" fill="black" text-anchor="middle">F</text><text x="30" y="298" font-family="DejaVu Sans, sans-serif" font-size="14" fill="black" text-anchor="middle">E</text><text x="1570" y="298" font-family="DejaVu Sans, sans-serif" font-size="14" fill="black" text-anchor="middle">E</text><text x="30" y="480" font-family="DejaVu Sans, sans-serif" font-size="14" fill="black" text-anchor="middle">D</text><text x="1570" y="480" font-family="DejaVu Sans, sans-serif" font-size="14" fill="black" text-anchor="middle">D</text><text x="30" y="661" font-family="DejaVu Sans, sans-serif" font-size="14" fill="black" text-anchor="middle">C</text><text x="1570" y="661" font-family="DejaVu Sans, sans-serif" font-size="14" fill="black" text-anchor="middle">C</text><text x="30" y="843" font-family="DejaVu Sans, sans-serif" font-size="14" fill="black" text-anchor="middle">B</text><text x="1570" y="843" font-family="DejaVu Sans, sans-serif" font-size="14" fill="black" text-anchor="middle">B</text><text x="30" y="1025" font-family="DejaVu Sans, sans-serif" font-size="14" fill="black" text-anchor="middle">A</text><text x="1570" y="1025" font-family="DejaVu Sans, sans-serif" font-size="14" fill="black" text-anchor="middle">A</text><line x1="20" y1="201.8" x2="40" y2="201.8" stroke="black" stroke-width="1" /><line x1="1560" y1="201.8" x2="1580" y2="201.8" stroke="black" stroke-width="1" /><line x1="20" y1="383.7" x2="40" y2="383.7" stroke="black" stroke-width="1" /><line x1="1560" y1="383.7" x2="1580" y2="383.7" stroke="black" stroke-width="1" /><line x1="20" y1="565.5" x2="40" y2="565.5" stroke="black" stroke-width="1" /><line x1="1560" y1="565.5" x2="1580" y2="565.5" stroke="black" stroke-width="1" /><line x1="20" y1="747.3" x2="40" y2="747.3" stroke="black" stroke-width="1" /><line x1="1560" y1="747.3" x2="1580" y2="747.3" stroke="black" stroke-width="1" /><line x1="20" y1="929.2" x2="40" y2="929.2" stroke="black" stroke-width="1" /><line x1="1560" y1="929.2" x2="1580" y2="929.2" stroke="black" stroke-width="1" /><text x="118" y="36" font-family="DejaVu Sans, sans-serif" font-size="14" fill="black" text-anchor="middle">8</text><text x="118" y="1106" font-family="DejaVu Sans, sans-serif" font-size="14" fill="black" text-anchor="middle">8</text><text x="312" y="36" font-family="DejaVu Sans, sans-serif" font-size="14" fill="black" text-anchor="middle">7</text><text x="312" y="1106" font-family="DejaVu Sans, sans-serif" font-size="14" fill="black" text-anchor="middle">7</text><text x="508" y="36" font-family="DejaVu Sans, sans-serif" font-size="14" fill="black" text-anchor="middle">6</text><text x="508" y="1106" font-family="DejaVu Sans, sans-serif" font-size="14" fill="black" text-anchor="middle">6</text><text x="702" y="36" font-family="DejaVu Sans, sans-serif" font-size="14" fill="black" text-anchor="middle">5</text><text x="702" y="1106" font-family="DejaVu Sans, sans-serif" font-size="14" fill="black" text-anchor="middle">5</text><text x="898" y="36" font-family="DejaVu Sans, sans-serif" font-size="14" fill="black" text-anchor="middle">4</text><text x="898" y="1106" font-family="DejaVu Sans, sans-serif" font-size="14" fill="black" text-anchor="middle">4</text><text x="1092" y="36" font-family="DejaVu Sans, sans-serif" font-size="14" fill="black" text-anchor="middle">3</text><text x="1092" y="1106" font-family="DejaVu Sans, sans-serif" font-size="14" fill="black" text-anchor="middle">3</text><text x="1288" y="36" font-family="DejaVu Sans, sans-serif" font-size="14" fill="black" text-anchor="middle">2</text><text x="1288" y="1106" font-family="DejaVu Sans, sans-serif" font-size="14" fill="black" text-anchor="middle">2</text><text x="1482" y="36" font-family="DejaVu Sans, sans-serif" font-size="14" fill="black" text-anchor="middle">1</text><text x="1482" y="1106" font-family="DejaVu Sans, sans-serif" font-size="14" fill="black" text-anchor="middle">1</text><line x1="215.0" y1="20" x2="215.0" y2="40" stroke="black" stroke-width="1" /><line x1="215.0" y1="1091" x2="215.0" y2="1111" stroke="black" stroke-width="1" /><line x1="410.0" y1="20" x2="410.0" y2="40" stroke="black" stroke-width="1" /><line x1="410.0" y1="1091" x2="410.0" y2="1111" stroke="black" stroke-width="1" /><line x1="605.0" y1="20" x2="605.0" y2="40" stroke="black" stroke-width="1" /><line x1="605.0" y1="1091" x2="605.0" y2="1111" stroke="black" stroke-width="1" /><line x1="800.0" y1="20" x2="800.0" y2="40" stroke="black" stroke-width="1" /><line x1="800.0" y1="1091" x2="800.0" y2="1111" stroke="black" stroke-width="1" /><line x1="995.0" y1="20" x2="995.0" y2="40" stroke="black" stroke-width="1" /><line x1="995.0" y1="1091" x2="995.0" y2="1111" stroke="black" stroke-width="1" /><line x1="1190.0" y1="20" x2="1190.0" y2="40" stroke="black" stroke-width="1" /><line x1="1190.0" y1="1091" x2="1190.0" y2="1111" stroke="black" stroke-width="1" /><line x1="1385.0" y1="20" x2="1385.0" y2="40" stroke="black" stroke-width="1" /><line x1="1385.0" y1="1091" x2="1385.0" y2="1111" stroke="black" stroke-width="1" /><text x="1195" y="940" font-family="DejaVu Sans, sans-serif" font-size="14" fill="black">* GIVEN DIMENSION</text><rect x="1180" y="950" width="380" height="135" fill="none" stroke="black" stroke-width="1.5" /><line x1="1180" y1="990" x2="1560" y2="990" stroke="black" stroke-width="1" /><text x="1195" y="977" font-family="DejaVu Sans, sans-serif" font-size="18" fill="black">PART: SELF-MADE IC CHIP CIRCUIT BOARD MO</text><text x="1195" y="1018" font-family="DejaVu Sans, sans-serif" font-size="15" fill="black">SCALE 1.57:1   UNITS: cm</text><text x="1195" y="1046" font-family="DejaVu Sans, sans-serif" font-size="15" fill="black">DRAWN BY: BLUEPRINT AI</text><text x="1195" y="1074" font-family="DejaVu Sans, sans-serif" font-size="15" fill="black">SHEET 1/1</text><clipPath id="clip-content"><rect x="0" y="0" width="1080" height="840" /></clipPath><g id="model-content" clip-path="url(#clip-content)" transform="translate(60 60)"><defs>
    <marker id="arw" markerWidth="12" markerHeight="8" refX="9" refY="3" orient="auto" markerUnits="userSpaceOnUse">
      <path d="M0,0 L9,3 L0,6 z" fill="black" />
    </marker>
    <clipPath id="secclip">
      <polygon points="720,320 774,320 774,338 756,338 756,572 774,572 774,590 720,590" />
    </clipPath>
  </defs>

  <desc id="detail-specs">[{"view":"front","cx":360,"cy":455,"r":45,"scale":2,"label":"B"}]</desc>

  
  <g id="geometry" data-mm-per-unit="0.16667">

    <g id="geo-front" fill="none" stroke="black" stroke-width="2">
      <polygon points="279,332 291,320 429,320 441,332 441,578 429,590 291,590 279,578" />
      
      <rect x="243" y="343" width="36" height="15" />
      <rect x="243" y="373" width="36" height="15" />
      <rect x="243" y="403" width="36" height="15" />
      <rect x="243" y="433" width="36" height="15" />
      <rect x="243" y="463" width="36" height="15" />
      <rect x="243" y="493" width="36" height="15" />
      <rect x="243" y="523" width="36" height="15" />
      <rect x="243" y="553" width="36" height="15" />
      
      <rect x="441" y="343" width="36" height="15" />
      <rect x="441" y="373" width="36" height="15" />
      <rect x="441" y="403" width="36" height="15" />
      <rect x="441" y="433" width="36" height="15" />
      <rect x="441" y="463" width="36" height="15" />
      <rect x="441" y="493" width="36" height="15" />
      <rect x="441" y="523" width="36" height="15" />
      <rect x="441" y="553" width="36" height="15" />
      
      <circle cx="360" cy="455" r="15" />
    </g>

    <g id="geo-top" fill="none" stroke="black" stroke-width="2">
      <polygon points="279,230 279,188 291,176 429,176 441,188 441,230" />
      <rect x="243" y="198" width="36" height="10" />
      <rect x="441" y="198" width="36" height="10" />
    </g>

    <g id="geo-side" fill="none" stroke="black" stroke-width="2">
      <polygon points="560,332 572,320 602,320 614,332 614,578 602,590 572,590 560,578" />
      
      <rect x="548" y="343" width="12" height="15" />
      <rect x="548" y="373" width="12" height="15" />
      <rect x="548" y="403" width="12" height="15" />
      <rect x="548" y="433" width="12" height="15" />
      <rect x="548" y="463" width="12" height="15" />
      <rect x="548" y="493" width="12" height="15" />
      <rect x="548" y="523" width="12" height="15" />
      <rect x="548" y="553" width="12" height="15" />
      
      <rect x="614" y="343" width="12" height="15" />
      <rect x="614" y="373" width="12" height="15" />
      <rect x="614" y="403" width="12" height="15" />
      <rect x="614" y="433" width="12" height="15" />
      <rect x="614" y="463" width="12" height="15" />
      <rect x="614" y="493" width="12" height="15" />
      <rect x="614" y="523" width="12" height="15" />
      <rect x="614" y="553" width="12" height="15" />
    </g>
  </g>

  
  <g stroke="black" stroke-width="1" fill="none" stroke-dasharray="20 5 4 5">
    <line x1="250" y1="455" x2="470" y2="455" />
    <line x1="345" y1="435" x2="375" y2="475" />
    <line x1="587" y1="305" x2="587" y2="605" />
    <line x1="360" y1="160" x2="360" y2="246" />
  </g>

  
  <g stroke="black" stroke-width="1.5" fill="none" stroke-dasharray="20 5 4 5">
    <line x1="360" y1="305" x2="360" y2="605" />
  </g>
  <g stroke="black" stroke-width="1.5" fill="black">
    <line x1="360" y1="305" x2="360" y2="318" marker-start="url(#arw)" />
    <line x1="360" y1="592" x2="360" y2="605" marker-end="url(#arw)" />
  </g>
  <text x="360" y="300" font-size="18" font-weight="bold" text-anchor="middle">A</text>
  <text x="360" y="626" font-size="18" font-weight="bold" text-anchor="middle">A</text>

  
  <g stroke="black" stroke-width="1" fill="black">
    
    <line x1="483" y1="320" x2="527" y2="320" />
    <line x1="483" y1="590" x2="527" y2="590" />
    <line x1="520" y1="320" x2="520" y2="590" marker-start="url(#arw)" marker-end="url(#arw)" />
    
    <line x1="279" y1="595" x2="279" y2="628" />
    <line x1="441" y1="595" x2="441" y2="628" />
    <line x1="279" y1="622" x2="441" y2="622" marker-start="url(#arw)" marker-end="url(#arw)" />
    
    <line x1="243" y1="595" x2="243" y2="658" />
    <line x1="477" y1="595" x2="477" y2="658" />
    <line x1="243" y1="652" x2="477" y2="652" marker-start="url(#arw)" marker-end="url(#arw)" />
    
    <line x1="243" y1="350" x2="212" y2="350" />
    <line x1="243" y1="380" x2="212" y2="380" />
    <line x1="218" y1="350" x2="218" y2="380" marker-start="url(#arw)" marker-end="url(#arw)" />
    
    <line x1="447" y1="176" x2="505" y2="176" />
    <line x1="447" y1="230" x2="505" y2="230" />
    <line x1="498" y1="176" x2="498" y2="230" marker-start="url(#arw)" marker-end="url(#arw)" />
    
    <line x1="243" y1="196" x2="243" y2="160" />
    <line x1="279" y1="196" x2="279" y2="160" />
    <line x1="243" y1="166" x2="279" y2="166" marker-start="url(#arw)" marker-end="url(#arw)" />
    
    <line x1="560" y1="595" x2="560" y2="628" />
    <line x1="614" y1="595" x2="614" y2="628" />
    <line x1="560" y1="622" x2="614" y2="622" marker-start="url(#arw)" marker-end="url(#arw)" />
    
    <line x1="373" y1="446" x2="430" y2="415" />
  </g>

  
  <text x="540" y="460" font-size="18" text-anchor="middle" transform="rotate(-90 540 455)">4.5*</text>
  <text x="360" y="617" font-size="18" text-anchor="middle">2.7</text>
  <text x="360" y="647" font-size="18" text-anchor="middle">3.9</text>
  <text x="198" y="370" font-size="18" text-anchor="middle" transform="rotate(-90 198 368)">0.5</text>
  <text x="512" y="207" font-size="18">0.9</text>
  <text x="261" y="155" font-size="18" text-anchor="middle">0.6</text>
  <text x="587" y="645" font-size="18" text-anchor="middle">0.9</text>
  <text x="434" y="410" font-size="18">Ø0.5</text>

  
  <g clip-path="url(#secclip)" stroke="black" stroke-width="0.8">
    <line x1="720" y1="266" x2="774" y2="320" />
    <line x1="720" y1="282" x2="774" y2="336" />
    <line x1="720" y1="298" x2="774" y2="352" />
    <line x1="720" y1="314" x2="774" y2="368" />
    <line x1="720" y1="330" x2="774" y2="384" />
    <line x1="720" y1="346" x2="774" y2="400" />
    <line x1="720" y1="362" x2="774" y2="416" />
    <line x1="720" y1="378" x2="774" y2="432" />
    <line x1="720" y1="394" x2="774" y2="448" />
    <line x1="720" y1="410" x2="774" y2="464" />
    <line x1="720" y1="426" x2="774" y2="480" />
    <line x1="720" y1="442" x2="774" y2="496" />
    <line x1="720" y1="458" x2="774" y2="512" />
    <line x1="720" y1="474" x2="774" y2="528" />
    <line x1="720" y1="490" x2="774" y2="544" />
    <line x1="720" y1="506" x2="774" y2="560" />
    <line x1="720" y1="522" x2="774" y2="576" />
    <line x1="720" y1="538" x2="774" y2="592" />
    <line x1="720" y1="554" x2="774" y2="608" />
    <line x1="720" y1="570" x2="774" y2="624" />
    <line x1="720" y1="586" x2="774" y2="640" />
  </g>
  
  <circle cx="747" cy="455" r="15" fill="white" stroke="black" stroke-width="1.2" />
  
  <polygon points="720,320 774,320 774,338 756,338 756,572 774,572 774,590 720,590" fill="none" stroke="black" stroke-width="2" />

  
  <text x="360" y="686" font-size="20" font-weight="bold" text-anchor="middle">FRONT VIEW</text>
  <text x="360" y="285" font-size="20" font-weight="bold" text-anchor="middle">TOP VIEW</text>
  <text x="587" y="682" font-size="20" font-weight="bold" text-anchor="middle">RIGHT SIDE VIEW</text>
  <text x="747" y="618" font-size="15" font-weight="bold" text-anchor="middle">SECTION A-A</text>
  <text x="747" y="638" font-size="12" text-anchor="middle">(INFERRED - INTERNALS NOT VISIBLE IN PHOTOS)</text>

  
  <g font-size="15" fill="black">
    <text x="60" y="720">NOTES:</text>
    <text x="60" y="742">1. UNSPECIFIED EDGE RADIUS = 0.1 CM</text>
    <text x="60" y="764">2. 16 PINS TOTAL (8 PER SIDE), PITCH 0.5 CM</text>
    <text x="60" y="786">3. BACK FACE INFERRED - ASSUMED SYMMETRIC</text>
    <text x="60" y="808">4. MATERIAL: 3D-PRINTED (BLACK) IC MODEL</text>
  </g>
</g><g id="iso-view"><path d="M 1276.91 151.98 L 1285.03 137.92 L 1378.42 84.00 L 1386.54 88.69 L 1386.54 280.92 L 1378.42 294.98 L 1285.03 348.90 L 1276.91 344.21 Z" fill="none" stroke="black" stroke-width="1.2" stroke-dasharray="6 5" /><line x1="1313.46" y1="173.08" x2="1276.91" y2="151.98" stroke="black" stroke-width="2" /><line x1="1321.58" y1="159.02" x2="1285.03" y2="137.92" stroke="black" stroke-width="2" /><line x1="1414.97" y1="105.10" x2="1378.42" y2="84.00" stroke="black" stroke-width="2" /><line x1="1423.09" y1="109.79" x2="1386.54" y2="88.69" stroke="black" stroke-width="2" /><line x1="1423.09" y1="302.02" x2="1386.54" y2="280.92" stroke="black" stroke-width="2" /><line x1="1414.97" y1="316.08" x2="1378.42" y2="294.98" stroke="black" stroke-width="2" /><line x1="1321.58" y1="370.00" x2="1285.03" y2="348.90" stroke="black" stroke-width="2" /><line x1="1313.46" y1="365.31" x2="1276.91" y2="344.21" stroke="black" stroke-width="2" /><path d="M 1313.46 173.08 L 1321.58 159.02 L 1414.97 105.10 L 1423.09 109.79 L 1423.09 302.02 L 1414.97 316.08 L 1321.58 370.00 L 1313.46 365.31 Z" fill="none" stroke="black" stroke-width="2" /><path d="M 1378.42 231.69 L 1378.17 229.23 L 1377.42 227.18 L 1376.21 225.66 L 1374.60 224.73 L 1372.68 224.45 L 1370.53 224.82 L 1368.27 225.83 L 1366.01 227.43 L 1363.87 229.53 L 1361.94 232.04 L 1360.34 234.82 L 1359.13 237.74 L 1358.38 240.65 L 1358.12 243.41 L 1358.38 245.87 L 1359.13 247.92 L 1360.34 249.44 L 1361.94 250.37 L 1363.87 250.65 L 1366.01 250.28 L 1368.27 249.27 L 1370.53 247.67 L 1372.68 245.57 L 1374.60 243.06 L 1376.21 240.28 L 1377.42 237.35 L 1378.17 234.44 L 1378.42 231.69" fill="none" stroke="black" stroke-width="1.5" /><text x="1350.0" y="414.0" font-family="DejaVu Sans, sans-serif" font-size="18" fill="black" text-anchor="middle">ISOMETRIC VIEW</text></g><clipPath id="clip-detail-B-0"><circle cx="1350.0" cy="537.0" r="89.0" /></clipPath><g clip-path="url(#clip-detail-B-0)"><g transform="translate(630.00 -373.00) scale(2)"><g fill="none" stroke="black" stroke-width="2">
      <polygon points="279,332 291,320 429,320 441,332 441,578 429,590 291,590 279,578" />
      
      <rect x="243" y="343" width="36" height="15" />
      <rect x="243" y="373" width="36" height="15" />
      <rect x="243" y="403" width="36" height="15" />
      <rect x="243" y="433" width="36" height="15" />
      <rect x="243" y="463" width="36" height="15" />
      <rect x="243" y="493" width="36" height="15" />
      <rect x="243" y="523" width="36" height="15" />
      <rect x="243" y="553" width="36" height="15" />
      
      <rect x="441" y="343" width="36" height="15" />
      <rect x="441" y="373" width="36" height="15" />
      <rect x="441" y="403" width="36" height="15" />
      <rect x="441" y="433" width="36" height="15" />
      <rect x="441" y="463" width="36" height="15" />
      <rect x="441" y="493" width="36" height="15" />
      <rect x="441" y="523" width="36" height="15" />
      <rect x="441" y="553" width="36" height="15" />
      
      <circle cx="360" cy="455" r="15" />
    </g>

    </g></g><circle cx="1350.0" cy="537.0" r="89.0" fill="none" stroke="black" stroke-width="1.5" /><text x="1350.0" y="654" font-family="DejaVu Sans, sans-serif" font-size="18" fill="black" text-anchor="middle">DETAIL B (2:1)</text><circle cx="420.0" cy="515.0" r="45.0" fill="none" stroke="black" stroke-width="1" stroke-dasharray="6 4" /><text x="469.0" y="466.0" font-family="DejaVu Sans, sans-serif" font-size="16" fill="black">B</text><line x1="465.0" y1="516.1" x2="1261.0" y2="534.9" stroke="black" stroke-width="0.8" stroke-dasharray="10 6" /></svg>